<svg id="svg" version="1.1" xmlns="http://www.w3.org/2000/svg" xmlns:xlink="http://www.w3.org/1999/xlink" width="400" height="512.52408477842" viewBox="0, 0, 400,512.52408477842"><g id="svgg"><path id="path0" d="M192.136 146.505 C 188.194 146.674,181.240 147.200,178.539 147.533 L 177.367 147.678 176.357 155.152 C 174.029 172.381,173.400 177.172,173.415 177.576 C 173.424 177.811,172.997 181.223,172.467 185.158 C 171.936 189.092,171.063 195.723,170.527 199.893 C 169.991 204.063,169.072 211.030,168.484 215.376 C 167.897 219.722,167.420 223.518,167.424 223.812 C 167.429 224.106,166.999 227.565,166.470 231.500 C 165.940 235.435,165.071 242.018,164.539 246.129 C 164.007 250.240,163.142 256.775,162.616 260.651 C 162.091 264.527,161.662 268.020,161.663 268.412 C 161.665 268.804,161.240 272.071,160.719 275.673 C 160.199 279.274,159.716 282.942,159.646 283.823 C 159.524 285.355,157.930 297.075,157.706 298.082 C 157.626 298.440,157.808 298.775,158.404 299.371 C 158.847 299.814,159.738 300.792,160.384 301.544 C 161.030 302.296,161.703 303.065,161.879 303.252 C 162.056 303.440,162.968 304.454,163.908 305.506 C 164.848 306.559,166.569 308.477,167.732 309.770 C 168.896 311.062,170.277 312.600,170.802 313.187 C 172.482 315.068,173.648 316.363,174.664 317.476 C 175.208 318.073,176.072 319.034,176.583 319.611 C 177.094 320.189,177.823 320.998,178.204 321.410 C 178.584 321.821,180.417 323.887,182.276 326.001 C 184.136 328.115,186.026 330.198,186.475 330.629 C 186.925 331.061,187.293 331.493,187.292 331.590 C 187.291 331.688,187.664 332.152,188.120 332.621 C 189.932 334.489,190.752 335.391,191.163 335.968 C 192.249 337.492,192.205 338.536,192.205 310.976 L 192.205 285.379 190.900 284.441 C 184.644 279.940,182.249 270.988,185.627 264.724 C 186.676 262.779,187.567 261.537,188.794 260.311 C 192.668 256.437,197.858 254.919,203.426 256.033 C 206.506 256.650,208.834 257.947,211.322 260.435 C 216.151 265.263,217.294 273.424,213.932 279.069 C 213.552 279.707,213.134 280.416,213.004 280.644 C 212.577 281.394,210.427 283.484,209.098 284.441 L 207.795 285.379 207.795 310.991 C 207.795 331.776,207.847 336.591,208.070 336.535 C 208.383 336.456,210.700 333.938,217.073 326.749 C 219.520 323.988,221.773 321.473,222.080 321.158 C 222.387 320.844,223.070 320.086,223.599 319.474 C 224.558 318.364,225.816 316.966,227.229 315.441 C 227.640 314.997,228.505 314.029,229.151 313.289 C 229.797 312.550,230.491 311.771,230.693 311.558 C 230.895 311.345,232.624 309.414,234.533 307.267 C 237.859 303.529,239.433 301.782,241.458 299.580 C 242.206 298.766,242.364 298.458,242.279 297.978 C 242.002 296.417,240.471 285.033,240.361 283.716 C 240.292 282.894,239.808 279.221,239.285 275.554 C 238.762 271.887,238.337 268.619,238.341 268.293 C 238.345 267.966,237.916 264.479,237.386 260.545 C 234.852 241.705,234.476 238.831,234.485 238.334 C 234.490 238.041,234.065 234.629,233.541 230.753 C 233.018 226.877,232.100 219.957,231.503 215.376 C 230.905 210.796,229.984 203.828,229.457 199.893 C 228.929 195.958,228.500 192.486,228.504 192.176 C 228.507 191.867,228.078 188.580,227.549 184.872 C 227.021 181.165,226.592 177.862,226.596 177.533 C 226.600 177.204,226.170 173.716,225.640 169.781 C 225.110 165.846,224.226 159.278,223.676 155.186 C 223.097 150.885,222.577 147.711,222.443 147.665 C 222.073 147.540,215.468 146.948,211.959 146.725 C 207.081 146.415,196.873 146.302,192.136 146.505 M191.804 353.604 C 191.441 354.044,190.975 354.595,190.767 354.827 C 190.248 355.408,189.215 356.833,189.215 356.968 C 189.215 357.029,188.896 357.534,188.507 358.091 C 188.117 358.648,187.407 359.872,186.928 360.812 C 186.450 361.751,185.908 362.808,185.724 363.161 C 185.279 364.012,183.520 368.158,183.345 368.767 L 183.207 369.247 190.269 369.247 L 197.330 369.247 197.330 361.025 L 197.330 352.803 194.897 352.803 L 192.463 352.803 191.804 353.604 M202.670 361.025 L 202.670 369.247 209.721 369.247 L 216.773 369.247 216.633 368.660 C 216.556 368.337,216.074 367.173,215.561 366.073 C 215.048 364.973,214.629 363.985,214.629 363.877 C 214.629 363.768,214.196 362.918,213.668 361.986 C 213.139 361.055,212.707 360.209,212.707 360.108 C 212.707 360.007,212.401 359.451,212.027 358.873 C 210.056 355.825,209.441 354.960,209.166 354.855 C 208.999 354.791,208.863 354.610,208.863 354.453 C 208.863 354.296,208.546 353.861,208.159 353.486 L 207.454 352.803 205.062 352.803 L 202.670 352.803 202.670 361.025 M183.111 353.967 C 181.134 354.360,175.334 357.804,175.334 358.584 C 175.334 358.693,175.211 358.783,175.062 358.783 C 174.744 358.783,170.402 362.965,168.633 364.976 C 167.961 365.739,167.280 366.508,167.120 366.684 C 164.696 369.353,164.512 369.247,171.596 369.247 C 174.944 369.247,177.683 369.223,177.684 369.194 C 177.684 369.164,177.980 368.420,178.341 367.539 C 178.702 366.658,179.145 365.505,179.325 364.976 C 179.850 363.433,183.099 357.017,184.173 355.402 C 185.493 353.415,185.543 353.483,183.111 353.967 M214.842 353.787 C 214.842 353.859,215.304 354.607,215.868 355.450 C 216.980 357.113,219.951 363.015,220.716 365.083 C 220.977 365.788,221.454 367.013,221.776 367.806 L 222.363 369.247 228.426 369.247 C 235.485 369.247,235.303 369.352,232.880 366.684 C 232.720 366.508,232.037 365.739,231.364 364.976 C 229.818 363.225,226.515 359.930,225.526 359.152 C 225.112 358.827,224.437 358.282,224.026 357.942 C 222.801 356.929,220.575 355.413,219.448 354.825 C 218.256 354.204,214.842 353.434,214.842 353.787 M165.557 358.589 C 164.584 358.926,163.239 359.574,162.567 360.028 C 161.895 360.482,161.243 360.892,161.117 360.939 C 160.099 361.322,151.662 368.115,151.124 368.985 C 150.999 369.189,151.861 369.247,154.979 369.245 L 158.996 369.242 159.797 368.017 C 160.903 366.325,161.571 365.416,162.313 364.596 C 162.661 364.211,163.114 363.639,163.320 363.325 C 163.722 362.710,163.729 362.703,166.204 360.130 C 168.526 357.716,168.469 357.579,165.557 358.589 M232.141 358.063 C 232.141 358.216,233.114 359.330,235.007 361.345 C 235.724 362.109,236.541 363.070,236.822 363.481 C 237.103 363.892,237.474 364.344,237.646 364.485 C 237.819 364.626,238.260 365.174,238.628 365.702 C 238.995 366.231,239.707 367.245,240.211 367.955 L 241.126 369.247 245.069 369.247 C 247.238 369.247,249.012 369.216,249.012 369.179 C 249.012 369.016,247.737 367.762,246.556 366.764 C 244.293 364.851,241.745 362.840,241.584 362.840 C 241.498 362.840,240.901 362.408,240.256 361.879 C 239.612 361.351,239.007 360.918,238.911 360.918 C 238.816 360.918,238.191 360.548,237.522 360.095 C 236.061 359.106,232.141 357.626,232.141 358.063 M136.762 375.707 C 133.161 378.981,130.086 382.225,127.393 385.590 C 126.925 386.174,126.469 386.684,126.378 386.724 C 126.288 386.763,126.215 386.897,126.215 387.022 C 126.215 387.147,125.854 387.685,125.414 388.219 C 124.973 388.752,124.421 389.493,124.186 389.865 C 123.951 390.237,123.357 391.156,122.866 391.907 C 121.115 394.588,120.490 395.629,120.349 396.103 L 120.206 396.583 123.293 396.583 L 126.380 396.583 126.750 395.782 C 126.953 395.342,127.243 394.693,127.395 394.341 C 128.409 391.981,130.481 387.716,131.165 386.577 C 131.614 385.831,131.981 385.092,131.981 384.935 C 131.981 384.777,132.067 384.595,132.173 384.530 C 132.279 384.464,132.909 383.522,133.573 382.435 C 134.803 380.423,135.119 379.957,137.477 376.676 C 138.213 375.652,138.815 374.763,138.815 374.701 C 138.815 374.266,137.800 374.763,136.762 375.707 M144.790 375.601 C 144.298 376.159,143.323 377.384,142.624 378.324 C 141.925 379.263,141.094 380.352,140.778 380.743 C 140.462 381.134,140.059 381.721,139.883 382.048 C 139.706 382.374,139.217 383.160,138.794 383.793 C 136.972 386.523,136.164 387.940,134.345 391.593 C 133.284 393.723,132.321 395.717,132.204 396.024 L 131.991 396.583 139.221 396.583 L 146.451 396.583 146.677 395.996 C 146.802 395.673,147.113 394.688,147.370 393.807 C 147.626 392.926,148.257 391.069,148.771 389.681 C 149.286 388.293,149.706 387.069,149.706 386.960 C 149.706 386.471,154.020 377.351,154.976 375.818 C 155.765 374.553,155.885 374.586,150.579 374.586 L 145.685 374.586 144.790 375.601 M160.758 375.921 C 159.642 377.781,158.759 379.402,158.112 380.779 C 157.809 381.426,157.139 382.786,156.624 383.803 C 156.108 384.820,155.686 385.807,155.686 385.995 C 155.686 386.184,155.591 386.505,155.475 386.709 C 155.006 387.535,154.113 389.718,153.752 390.924 C 153.541 391.628,153.085 392.974,152.740 393.914 C 152.394 394.853,152.044 395.838,151.962 396.103 L 151.813 396.583 161.532 396.583 L 171.250 396.583 171.378 395.569 C 171.633 393.550,172.189 390.448,172.708 388.147 C 172.999 386.855,173.321 385.222,173.424 384.517 C 173.528 383.812,173.960 381.986,174.386 380.459 C 175.092 377.924,175.761 375.145,175.761 374.746 C 175.761 374.658,172.565 374.586,168.660 374.587 L 161.559 374.587 160.758 375.921 M180.619 377.096 C 180.187 378.476,179.723 380.133,179.588 380.779 C 179.453 381.426,179.024 383.300,178.634 384.944 C 177.850 388.257,177.683 389.121,176.969 393.540 L 176.478 396.583 186.904 396.583 L 197.330 396.583 197.330 385.585 L 197.330 374.586 189.368 374.586 L 181.406 374.586 180.619 377.096 M202.670 385.585 L 202.670 396.583 213.148 396.583 C 223.027 396.583,223.621 396.562,223.521 396.209 C 223.462 396.004,223.255 394.826,223.061 393.593 C 222.490 389.962,221.909 387.010,221.316 384.730 C 221.011 383.556,220.719 382.258,220.668 381.847 C 220.617 381.436,220.137 379.634,219.600 377.843 L 218.625 374.586 210.647 374.586 L 202.670 374.586 202.670 385.585 M224.239 374.797 C 224.239 375.103,224.622 376.645,225.540 380.032 C 225.985 381.676,226.447 383.599,226.565 384.303 C 226.684 385.008,227.170 387.458,227.646 389.749 C 228.121 392.039,228.510 394.213,228.510 394.580 C 228.510 394.948,228.570 395.549,228.644 395.916 L 228.777 396.583 238.482 396.583 L 248.187 396.583 248.047 396.103 C 247.971 395.838,247.592 394.751,247.206 393.687 C 246.819 392.622,246.349 391.222,246.161 390.574 C 245.973 389.927,245.480 388.654,245.066 387.746 C 244.653 386.838,244.314 386.013,244.314 385.912 C 244.314 385.521,240.624 378.167,239.354 376.028 L 238.499 374.586 231.369 374.586 C 226.827 374.586,224.239 374.663,224.239 374.797 M244.530 374.746 C 244.531 374.834,244.784 375.339,245.092 375.868 C 245.895 377.249,248.122 381.745,248.459 382.666 C 248.617 383.097,249.088 384.218,249.507 385.158 C 250.380 387.118,251.859 391.206,252.847 394.394 L 253.525 396.583 260.772 396.583 C 264.758 396.583,268.019 396.536,268.019 396.480 C 268.019 396.357,265.963 391.971,265.614 391.351 C 265.482 391.116,264.953 390.116,264.438 389.129 C 263.923 388.142,263.173 386.846,262.770 386.249 C 262.368 385.652,262.040 385.098,262.040 385.018 C 262.040 384.638,258.781 380.053,256.106 376.668 L 254.460 374.586 249.494 374.586 C 246.762 374.586,244.529 374.658,244.530 374.746 M261.324 374.853 C 261.510 375.156,262.099 375.998,264.052 378.751 C 265.374 380.613,267.059 383.310,268.305 385.558 C 269.337 387.420,271.863 392.399,271.863 392.572 C 271.863 392.663,272.263 393.602,272.752 394.660 L 273.640 396.583 276.703 396.583 C 280.280 396.583,280.182 396.684,278.772 394.432 C 278.225 393.559,277.432 392.294,277.010 391.620 C 276.587 390.945,276.169 390.393,276.081 390.392 C 275.993 390.391,275.921 390.261,275.921 390.104 C 275.921 389.449,270.711 383.126,267.383 379.743 C 263.482 375.778,262.149 374.586,261.613 374.586 C 261.306 374.586,261.213 374.672,261.324 374.853 M116.961 402.936 C 116.133 404.840,114.467 409.652,114.061 411.319 C 113.932 411.847,113.539 413.399,113.187 414.767 C 112.836 416.134,112.453 418.152,112.336 419.251 C 112.219 420.350,112.027 422.066,111.910 423.065 C 111.792 424.063,111.695 425.384,111.694 426.001 L 111.692 427.122 115.964 427.122 L 120.235 427.122 120.235 425.835 C 120.235 423.884,120.822 418.701,121.440 415.195 C 121.744 413.474,122.070 411.538,122.165 410.892 C 122.346 409.661,122.688 408.297,123.531 405.446 C 123.808 404.506,124.097 403.377,124.174 402.936 L 124.312 402.136 120.811 402.136 L 117.310 402.136 116.961 402.936 M129.050 404.965 C 127.075 411.365,126.037 417.401,125.634 424.826 L 125.510 427.122 133.732 427.122 L 141.955 427.122 142.103 424.079 C 142.364 418.711,143.317 410.882,144.305 405.980 C 144.601 404.511,144.891 403.046,144.950 402.723 L 145.056 402.136 137.490 402.136 L 129.923 402.136 129.050 404.965 M150.047 403.684 C 148.414 411.195,147.340 420.182,147.355 426.215 L 147.357 427.122 158.112 427.122 L 168.866 427.122 169.012 423.438 C 169.453 412.305,169.596 409.806,169.990 406.320 C 170.227 404.216,170.422 402.414,170.422 402.315 C 170.422 402.216,165.913 402.136,160.403 402.136 L 150.383 402.136 150.047 403.684 M175.458 403.791 C 175.388 404.701,175.186 407.176,175.007 409.290 C 174.571 414.460,174.318 418.548,174.146 423.225 L 174.003 427.122 185.667 427.122 L 197.330 427.122 197.330 414.629 L 197.330 402.136 186.457 402.136 L 175.584 402.136 175.458 403.791 M202.670 414.629 L 202.670 427.122 214.339 427.122 L 226.008 427.122 225.861 422.904 C 225.700 418.315,225.476 414.749,224.983 408.970 C 224.808 406.914,224.609 404.536,224.541 403.684 L 224.416 402.136 213.543 402.136 L 202.670 402.136 202.670 414.629 M229.582 402.403 C 229.585 402.549,229.778 404.255,230.013 406.193 C 230.407 409.454,230.620 413.145,230.995 423.225 L 231.140 427.122 241.892 427.122 L 252.643 427.122 252.645 425.894 C 252.652 421.298,251.869 413.389,250.947 408.756 C 250.609 407.053,250.277 405.244,250.210 404.737 C 250.143 404.229,249.987 403.436,249.862 402.975 L 249.637 402.136 239.607 402.136 C 231.724 402.136,229.579 402.193,229.582 402.403 M254.992 402.286 C 254.992 402.369,255.276 403.835,255.623 405.543 C 256.692 410.809,257.664 418.661,257.906 424.000 L 258.048 427.122 266.270 427.122 L 274.491 427.122 274.363 424.613 C 274.126 420.009,273.543 415.371,272.799 412.173 C 272.511 410.940,272.134 409.258,271.960 408.436 C 271.786 407.613,271.291 405.860,270.859 404.538 L 270.074 402.136 262.533 402.136 C 258.385 402.136,254.992 402.203,254.992 402.286 M275.826 402.936 C 275.901 403.377,276.183 404.458,276.451 405.339 C 277.970 410.322,279.426 418.910,279.701 424.506 L 279.830 427.122 284.069 427.122 L 288.308 427.122 288.311 426.001 C 288.315 424.478,287.728 419.076,287.329 416.978 C 286.756 413.956,284.688 406.656,284.244 406.086 C 284.153 405.969,283.968 405.463,283.834 404.961 C 283.700 404.460,283.406 403.619,283.180 403.093 L 282.770 402.136 279.229 402.136 L 275.688 402.136 275.826 402.936 M111.694 433.582 C 111.695 434.199,111.791 435.521,111.909 436.519 C 112.026 437.517,112.223 439.247,112.347 440.363 C 112.471 441.479,112.869 443.545,113.230 444.955 C 113.592 446.364,114.030 448.094,114.205 448.799 C 114.379 449.503,114.746 450.705,115.021 451.468 C 116.118 454.520,116.628 455.883,116.961 456.647 L 117.310 457.448 120.825 457.448 L 124.340 457.448 124.196 456.647 C 124.117 456.207,123.670 454.489,123.204 452.830 C 122.737 451.171,122.259 449.201,122.142 448.452 C 122.024 447.703,121.739 446.074,121.508 444.833 C 120.934 441.750,120.475 437.976,120.308 434.971 L 120.169 432.461 115.931 432.461 L 111.692 432.461 111.694 433.582 M125.643 434.808 C 125.970 440.531,126.518 444.565,127.509 448.547 C 127.854 449.935,128.144 451.280,128.152 451.536 C 128.160 451.793,128.569 453.203,129.060 454.672 L 129.952 457.341 137.480 457.397 C 143.277 457.441,145.008 457.394,145.008 457.194 C 145.008 457.051,144.728 455.584,144.385 453.934 C 143.375 449.069,142.394 441.097,142.105 435.398 L 141.956 432.461 133.732 432.461 L 125.509 432.461 125.643 434.808 M147.356 433.369 C 147.350 437.848,148.152 446.001,149.063 450.721 C 149.404 452.483,149.737 454.299,149.805 454.757 C 149.929 455.600,150.090 456.395,150.274 457.074 C 150.406 457.560,170.422 457.665,170.422 457.181 C 170.422 457.034,170.228 455.232,169.990 453.176 C 169.753 451.121,169.468 447.181,169.356 444.421 C 169.244 441.660,169.088 437.840,169.009 435.932 L 168.866 432.461 158.111 432.461 L 147.357 432.461 147.356 433.369 M174.145 436.145 C 174.340 441.216,174.633 446.012,175.005 450.187 C 175.178 452.125,175.379 454.552,175.452 455.579 L 175.586 457.448 186.458 457.448 L 197.330 457.448 197.330 444.955 L 197.330 432.461 185.667 432.461 L 174.003 432.461 174.145 436.145 M202.670 444.955 L 202.670 457.448 213.561 457.448 C 223.788 457.448,224.453 457.425,224.464 457.074 C 224.482 456.433,224.668 454.100,225.098 449.119 C 225.519 444.255,225.948 436.571,225.948 433.913 L 225.948 432.461 214.309 432.461 L 202.670 432.461 202.670 444.955 M230.879 439.776 C 230.650 446.078,230.154 452.858,229.660 456.434 L 229.520 457.448 239.572 457.448 C 248.963 457.448,249.631 457.423,249.730 457.074 C 249.788 456.869,249.937 456.172,250.060 455.526 C 250.184 454.880,250.523 453.102,250.814 451.575 C 251.849 446.147,252.662 438.161,252.647 433.582 L 252.643 432.461 241.893 432.461 L 231.144 432.461 230.879 439.776 M257.902 435.611 C 257.756 438.798,257.081 445.402,256.693 447.452 C 256.576 448.066,256.384 449.422,256.266 450.466 C 256.148 451.509,255.813 453.372,255.522 454.604 C 255.230 455.837,254.992 456.982,254.992 457.149 C 254.992 457.408,256.123 457.445,262.520 457.397 L 270.048 457.341 270.939 454.565 C 272.875 448.532,273.997 442.081,274.367 434.864 L 274.490 432.461 266.268 432.461 L 258.047 432.461 257.902 435.611 M279.695 435.077 C 279.534 438.191,279.095 441.724,278.361 445.809 C 277.616 449.956,277.472 450.598,276.669 453.390 C 276.280 454.741,275.900 456.207,275.825 456.647 L 275.688 457.448 279.185 457.448 C 283.226 457.448,282.734 457.741,283.838 454.672 C 286.709 446.692,288.320 439.095,288.310 433.582 L 288.308 432.461 284.069 432.461 L 279.831 432.461 279.695 435.077 M120.329 463.374 C 120.407 463.697,120.787 464.442,121.175 465.029 C 121.563 465.617,122.103 466.482,122.374 466.951 C 122.916 467.891,123.537 468.786,125.147 470.948 C 125.734 471.737,126.215 472.446,126.215 472.524 C 126.215 472.602,126.527 473.021,126.909 473.455 C 127.290 473.889,128.035 474.765,128.564 475.403 C 130.296 477.492,135.405 482.862,135.661 482.862 C 135.701 482.862,136.246 483.342,136.872 483.930 C 137.958 484.949,138.453 485.196,138.679 484.830 C 138.736 484.738,138.254 483.945,137.608 483.068 C 136.962 482.191,136.092 480.945,135.674 480.299 C 135.256 479.653,134.845 479.076,134.761 479.018 C 134.677 478.959,134.342 478.430,134.017 477.843 C 133.692 477.256,133.235 476.506,133.002 476.177 C 132.114 474.927,128.528 467.855,127.160 464.656 L 126.361 462.787 123.275 462.787 L 120.189 462.787 120.329 463.374 M132.136 462.917 C 131.712 463.341,137.902 475.022,139.487 476.789 C 139.705 477.031,139.883 477.327,139.883 477.445 C 139.883 477.563,140.201 478.037,140.591 478.499 C 140.981 478.960,141.599 479.770,141.965 480.299 C 142.331 480.828,143.287 482.077,144.091 483.075 L 145.552 484.891 150.337 484.948 C 155.582 485.011,155.762 484.971,155.084 483.891 C 154.587 483.097,151.628 477.231,151.628 477.037 C 151.628 476.969,151.288 476.161,150.872 475.243 C 149.981 473.275,149.878 473.021,149.449 471.757 C 149.270 471.228,148.832 469.979,148.477 468.980 C 148.122 467.982,147.525 466.180,147.150 464.976 L 146.470 462.787 139.368 462.787 C 135.461 462.787,132.207 462.845,132.136 462.917 M151.960 462.982 C 151.894 463.089,152.228 464.234,152.702 465.527 C 153.175 466.819,153.710 468.374,153.891 468.981 C 154.071 469.588,154.549 470.809,154.952 471.695 C 155.356 472.580,155.685 473.413,155.684 473.545 C 155.678 474.114,159.488 481.602,160.933 483.860 L 161.660 484.997 168.711 484.997 C 174.805 484.997,175.761 484.954,175.761 484.680 C 175.761 484.282,175.480 483.140,174.422 479.231 C 173.961 477.528,173.511 475.654,173.420 475.067 C 173.330 474.479,172.866 472.077,172.389 469.728 C 171.671 466.196,171.316 464.019,171.281 462.947 C 171.274 462.713,152.105 462.748,151.960 462.982 M176.612 463.267 C 176.603 464.450,177.851 471.348,178.746 475.067 C 179.085 476.476,179.558 478.446,179.797 479.445 C 180.035 480.443,180.507 482.077,180.845 483.075 L 181.459 484.891 189.395 484.947 L 197.330 485.003 197.330 473.895 L 197.330 462.787 186.973 462.787 L 176.615 462.787 176.612 463.267 M202.670 473.892 L 202.670 484.997 210.632 484.997 L 218.594 484.997 219.301 482.702 C 220.047 480.282,220.133 479.946,221.329 474.853 C 222.185 471.203,222.347 470.376,222.960 466.524 C 223.203 464.997,223.448 463.532,223.504 463.267 L 223.607 462.787 213.138 462.787 L 202.670 462.787 202.670 473.892 M228.640 463.695 C 228.579 464.194,228.474 465.100,228.407 465.709 C 228.341 466.317,227.905 468.576,227.439 470.728 C 226.972 472.879,226.590 474.835,226.590 475.074 C 226.589 475.313,226.192 476.947,225.708 478.704 C 225.224 480.462,224.754 482.285,224.664 482.755 C 224.574 483.225,224.430 483.922,224.343 484.303 L 224.186 484.997 231.314 484.997 L 238.442 484.997 239.423 483.342 C 240.573 481.403,241.395 479.833,243.342 475.860 C 243.877 474.770,244.314 473.738,244.314 473.568 C 244.314 473.398,244.606 472.656,244.963 471.920 C 245.319 471.184,245.844 469.861,246.128 468.980 C 246.411 468.099,246.985 466.432,247.401 465.276 C 247.817 464.120,248.104 463.087,248.039 462.980 C 247.970 462.870,243.825 462.787,238.335 462.787 L 228.750 462.787 228.640 463.695 M252.873 465.083 C 252.484 466.345,251.784 468.388,251.317 469.621 C 250.851 470.854,250.393 472.152,250.301 472.504 C 250.209 472.856,249.785 473.890,249.359 474.801 C 248.933 475.711,248.586 476.528,248.587 476.616 C 248.589 476.880,245.796 482.468,245.121 483.548 C 244.210 485.008,244.176 484.997,249.534 484.997 L 254.302 484.997 255.022 484.196 C 255.418 483.756,256.460 482.435,257.338 481.260 C 258.216 480.085,259.115 478.932,259.337 478.697 C 259.559 478.462,259.872 477.964,260.033 477.591 C 260.193 477.217,260.422 476.851,260.542 476.777 C 261.385 476.256,267.806 464.239,267.806 463.182 C 267.806 462.806,267.469 462.787,260.693 462.787 L 253.581 462.787 252.873 465.083 M272.850 464.656 C 271.386 468.033,269.038 472.830,268.418 473.712 C 268.199 474.023,268.019 474.378,268.019 474.499 C 268.019 474.620,267.587 475.351,267.058 476.123 C 266.530 476.895,266.097 477.608,266.097 477.706 C 266.097 477.805,265.785 478.309,265.403 478.825 C 265.021 479.342,264.517 480.073,264.282 480.450 C 264.047 480.826,263.262 481.947,262.537 482.940 C 261.812 483.934,261.276 484.803,261.345 484.872 C 261.648 485.176,262.125 484.926,263.149 483.930 C 263.751 483.342,264.301 482.862,264.370 482.862 C 264.498 482.861,267.996 479.306,269.737 477.407 C 270.737 476.315,272.463 474.248,273.302 473.136 C 273.565 472.789,274.259 471.879,274.846 471.116 C 275.433 470.352,275.914 469.616,275.917 469.479 C 275.919 469.342,276.007 469.197,276.111 469.158 C 276.430 469.039,279.765 463.567,279.765 463.164 C 279.765 462.821,279.487 462.787,276.713 462.787 L 273.660 462.787 272.850 464.656 M151.201 490.434 C 151.201 491.017,159.861 498.089,161.230 498.624 C 161.402 498.691,162.123 499.136,162.832 499.613 C 164.153 500.502,167.722 501.863,168.001 501.584 C 168.086 501.499,167.532 500.783,166.769 499.994 C 163.974 497.100,159.105 491.067,159.103 490.497 C 159.103 490.408,157.325 490.336,155.152 490.336 C 152.979 490.336,151.201 490.380,151.201 490.434 M165.510 490.587 C 165.510 490.724,165.990 491.390,166.578 492.065 C 167.165 492.740,167.645 493.371,167.645 493.467 C 167.645 493.563,168.074 494.075,168.597 494.605 C 169.120 495.135,170.258 496.289,171.126 497.170 C 173.705 499.788,175.703 501.474,178.217 503.155 C 178.804 503.548,179.333 503.929,179.391 504.003 C 179.925 504.670,183.586 505.926,184.997 505.926 C 185.293 505.926,185.161 505.463,184.677 504.804 C 184.008 503.894,182.287 500.928,181.610 499.519 C 180.056 496.288,179.178 494.353,179.178 494.164 C 179.178 493.946,178.269 491.655,177.851 490.817 L 177.611 490.336 171.560 490.336 C 167.076 490.336,165.510 490.401,165.510 490.587 M183.349 490.817 C 183.740 492.142,186.655 498.402,187.023 498.707 C 187.172 498.830,187.293 499.073,187.293 499.247 C 187.293 499.837,190.303 504.268,191.958 506.114 C 192.432 506.643,192.584 506.676,194.894 506.749 L 197.330 506.827 197.330 498.582 L 197.330 490.336 190.269 490.336 L 183.207 490.336 183.349 490.817 M202.670 498.582 L 202.670 506.827 205.145 506.748 L 207.620 506.670 208.188 505.990 C 209.298 504.663,210.502 503.027,211.221 501.869 C 211.622 501.223,212.066 500.573,212.208 500.426 C 212.349 500.278,212.533 499.946,212.615 499.687 C 212.697 499.428,213.110 498.588,213.533 497.820 C 214.310 496.408,216.765 490.864,216.765 490.522 C 216.765 490.420,213.593 490.336,209.717 490.336 L 202.670 490.336 202.670 498.582 M221.905 491.458 C 221.649 492.074,221.352 492.771,221.244 493.006 C 221.136 493.241,220.807 494.087,220.513 494.886 C 220.219 495.685,219.833 496.598,219.656 496.915 C 219.479 497.232,218.990 498.211,218.571 499.092 C 217.451 501.443,216.403 503.328,215.575 504.481 C 214.438 506.063,214.440 506.065,216.765 505.619 C 218.875 505.213,223.948 502.192,224.730 500.875 C 224.824 500.717,225.032 500.587,225.191 500.587 C 225.509 500.587,232.355 493.834,232.355 493.520 C 232.355 493.413,232.545 493.136,232.777 492.904 C 233.349 492.332,234.490 490.742,234.490 490.518 C 234.490 490.418,231.763 490.336,228.430 490.336 L 222.370 490.336 221.905 491.458 M240.198 491.591 C 239.755 492.279,239.202 493.014,238.970 493.224 C 238.738 493.434,238.548 493.723,238.548 493.867 C 238.548 494.011,238.389 494.260,238.194 494.421 C 238.000 494.582,237.328 495.356,236.702 496.141 C 236.076 496.926,234.769 498.402,233.799 499.422 C 231.905 501.412,231.730 501.655,232.187 501.655 C 232.912 501.655,236.114 500.347,237.221 499.599 C 237.892 499.145,238.639 498.677,238.881 498.559 C 239.336 498.338,239.879 497.944,243.408 495.277 C 245.659 493.576,246.035 493.257,247.567 491.755 C 248.123 491.210,248.676 490.763,248.795 490.763 C 248.915 490.763,249.012 490.667,249.012 490.550 C 249.012 490.415,247.536 490.337,245.008 490.338 L 241.004 490.340 240.198 491.591 " stroke="none" fill="#e4742c" fill-rule="evenodd"></path><path id="path1" d="M193.273 0.221 C 191.275 0.421,188.144 0.966,185.905 1.503 C 184.965 1.728,183.860 1.967,183.449 2.035 C 182.307 2.222,175.858 4.442,174.052 5.270 C 171.582 6.402,167.421 8.544,166.471 9.172 C 166.001 9.483,165.462 9.797,165.272 9.869 C 164.660 10.104,159.325 13.987,157.965 15.188 C 155.293 17.546,153.452 19.332,151.276 21.676 C 150.205 22.831,147.269 26.563,146.403 27.871 C 145.937 28.575,145.394 29.343,145.196 29.578 C 144.998 29.813,144.527 30.581,144.149 31.285 C 143.771 31.989,143.185 32.968,142.847 33.459 C 142.509 33.951,142.232 34.425,142.232 34.512 C 142.232 34.600,141.843 35.425,141.369 36.347 C 140.321 38.383,138.343 43.237,137.905 44.848 C 137.729 45.494,137.288 46.983,136.925 48.158 C 136.562 49.333,136.170 50.918,136.052 51.682 C 135.935 52.445,135.650 54.186,135.419 55.549 C 134.299 62.147,134.369 69.182,135.626 76.455 C 136.305 80.389,136.475 81.146,137.148 83.263 C 137.498 84.365,137.914 85.764,138.073 86.372 C 138.231 86.980,138.703 88.228,139.122 89.147 C 139.540 90.065,139.883 90.900,139.883 91.001 C 139.883 91.329,142.255 96.149,143.109 97.554 C 143.566 98.307,143.940 98.964,143.940 99.015 C 143.940 99.148,146.860 103.479,147.725 104.628 C 150.758 108.658,154.962 112.990,159.317 116.573 C 160.457 117.512,162.658 119.031,166.208 121.332 C 167.467 122.147,175.152 126.001,175.520 126.001 C 175.631 126.001,176.716 126.383,177.931 126.850 C 190.745 131.776,208.228 131.855,221.463 127.046 C 223.049 126.469,224.405 125.999,224.478 126.000 C 224.629 126.001,229.893 123.551,230.539 123.178 C 230.774 123.043,231.687 122.530,232.568 122.039 C 233.449 121.548,235.073 120.533,236.177 119.783 C 237.280 119.033,238.348 118.321,238.549 118.201 C 239.057 117.898,241.217 116.202,242.079 115.430 C 242.472 115.077,243.496 114.165,244.355 113.402 C 246.236 111.731,250.987 106.493,252.299 104.645 C 253.825 102.494,256.060 99.140,256.060 98.999 C 256.060 98.910,256.255 98.564,256.493 98.230 C 257.219 97.210,260.117 91.453,260.117 91.031 C 260.117 90.813,260.204 90.544,260.309 90.432 C 260.582 90.145,261.623 87.475,262.055 85.958 C 262.256 85.254,262.716 83.716,263.077 82.541 C 263.439 81.367,263.827 79.781,263.940 79.018 C 264.053 78.254,264.339 76.524,264.574 75.174 C 266.422 64.571,264.733 49.577,260.724 41.004 C 260.477 40.475,260.106 39.562,259.900 38.975 C 259.695 38.388,259.179 37.297,258.754 36.552 C 258.329 35.806,257.982 35.146,257.982 35.084 C 257.982 34.911,255.854 31.212,254.998 29.899 C 254.577 29.253,254.139 28.572,254.025 28.387 C 252.094 25.251,244.028 16.294,242.780 15.898 C 242.566 15.830,242.392 15.698,242.392 15.604 C 242.392 15.310,237.496 11.608,235.478 10.378 C 235.111 10.154,234.330 9.662,233.743 9.285 C 229.787 6.746,219.712 2.500,216.505 2.022 C 216.027 1.951,214.905 1.711,214.011 1.489 C 208.625 0.150,199.520 -0.407,193.273 0.221 M159.851 150.063 C 156.607 150.776,153.999 151.342,151.628 151.849 C 146.268 152.995,139.597 154.837,134.116 156.684 C 132.883 157.099,131.297 157.603,130.593 157.803 C 129.340 158.158,127.438 158.858,122.691 160.711 C 121.399 161.215,120.111 161.695,119.829 161.778 C 119.547 161.861,118.504 162.302,117.512 162.758 C 116.519 163.215,115.624 163.588,115.521 163.588 C 115.418 163.588,114.635 163.932,113.780 164.352 C 112.926 164.772,111.793 165.290,111.264 165.503 C 110.189 165.935,101.174 170.363,99.840 171.113 C 99.370 171.378,98.197 172.051,97.234 172.610 C 96.271 173.168,95.418 173.625,95.338 173.625 C 95.259 173.625,94.366 174.124,93.353 174.733 C 92.340 175.342,90.790 176.274,89.909 176.804 C 89.028 177.334,87.058 178.589,85.531 179.594 C 84.004 180.598,82.659 181.457,82.541 181.503 C 82.424 181.549,81.851 181.933,81.268 182.357 C 80.686 182.782,79.854 183.369,79.421 183.663 C 78.667 184.173,76.537 185.692,74.329 187.293 C 73.167 188.136,72.553 188.611,69.516 191.014 C 68.341 191.944,67.207 192.881,66.996 193.096 C 66.786 193.311,66.544 193.486,66.459 193.486 C 66.373 193.486,65.849 193.895,65.295 194.394 C 64.740 194.893,63.829 195.696,63.270 196.179 C 58.749 200.077,48.969 209.626,46.129 212.913 C 45.483 213.661,44.618 214.658,44.207 215.130 C 43.796 215.602,43.001 216.523,42.440 217.177 C 41.879 217.831,41.080 218.751,40.664 219.221 C 39.997 219.974,36.935 223.878,35.451 225.868 C 33.543 228.427,32.000 230.591,30.827 232.355 C 30.085 233.470,29.198 234.768,28.855 235.238 C 28.512 235.707,27.884 236.668,27.460 237.373 C 27.036 238.078,26.109 239.568,25.400 240.683 C 24.692 241.799,23.963 243.049,23.781 243.460 C 23.598 243.871,23.326 244.351,23.176 244.527 C 23.026 244.704,22.495 245.617,21.996 246.556 C 21.497 247.496,21.011 248.363,20.916 248.484 C 20.355 249.193,13.881 262.609,13.881 263.061 C 13.881 263.142,13.445 264.185,12.912 265.380 C 12.379 266.574,11.904 267.729,11.857 267.946 C 11.810 268.162,11.389 269.301,10.921 270.475 C 10.454 271.650,9.930 273.043,9.756 273.572 C 9.582 274.100,9.104 275.542,8.694 276.775 C 7.405 280.650,6.215 284.529,5.977 285.638 C 5.850 286.225,5.415 287.907,5.011 289.375 C 4.606 290.844,4.135 292.814,3.964 293.753 C 3.793 294.693,3.316 297.076,2.904 299.049 C 2.492 301.022,2.097 303.232,2.026 303.961 C 1.955 304.689,1.715 306.487,1.494 307.955 C 0.315 315.760,0.053 319.940,0.053 330.913 C 0.053 342.005,0.193 344.322,1.394 353.123 C 2.360 360.198,2.564 361.435,3.311 364.762 C 3.720 366.583,4.056 368.265,4.056 368.499 C 4.058 368.931,5.585 374.872,6.555 378.217 C 7.943 383.006,10.170 389.723,11.264 392.419 C 11.502 393.006,12.063 394.399,12.509 395.515 C 12.956 396.631,13.447 397.734,13.601 397.965 C 13.755 398.197,13.881 398.544,13.881 398.736 C 13.881 398.928,14.314 399.967,14.842 401.045 C 15.371 402.123,15.804 403.092,15.804 403.199 C 15.804 403.481,20.850 413.384,21.356 414.095 C 21.591 414.425,21.783 414.799,21.783 414.927 C 21.783 415.054,22.216 415.833,22.744 416.658 C 23.273 417.482,23.705 418.211,23.705 418.276 C 23.705 418.392,26.395 422.839,27.115 423.914 C 27.313 424.210,27.816 424.981,28.231 425.627 C 28.646 426.273,29.358 427.379,29.812 428.083 C 30.267 428.788,30.856 429.604,31.123 429.896 C 31.389 430.189,31.607 430.498,31.607 430.584 C 31.607 430.721,34.947 435.393,35.239 435.665 C 35.303 435.723,35.535 436.060,35.755 436.412 C 35.975 436.765,36.485 437.437,36.888 437.907 C 37.290 438.377,38.756 440.169,40.145 441.890 C 41.534 443.612,42.826 445.197,43.017 445.414 C 47.215 450.201,49.909 453.065,53.800 456.878 C 55.259 458.307,56.797 459.824,57.217 460.249 C 57.890 460.929,60.531 463.288,63.715 466.053 C 64.284 466.547,64.861 467.052,64.997 467.174 C 65.286 467.437,69.364 470.730,70.541 471.653 C 72.810 473.431,78.920 477.956,80.054 478.697 C 80.234 478.815,81.011 479.344,81.781 479.873 C 82.552 480.402,83.431 480.962,83.735 481.118 C 84.040 481.275,84.616 481.683,85.017 482.026 C 85.417 482.369,85.928 482.709,86.151 482.781 C 86.375 482.853,87.257 483.381,88.110 483.954 C 88.964 484.528,89.730 484.997,89.811 484.997 C 89.892 484.997,90.609 485.430,91.404 485.958 C 92.199 486.487,92.911 486.919,92.985 486.919 C 93.059 486.919,93.863 487.357,94.771 487.892 C 96.724 489.042,96.776 489.072,98.862 490.169 C 99.752 490.638,101.122 491.396,101.906 491.854 C 102.690 492.311,103.433 492.686,103.558 492.686 C 103.683 492.686,104.555 493.112,105.496 493.632 C 106.437 494.153,107.424 494.646,107.688 494.728 C 107.952 494.810,108.997 495.297,110.009 495.810 C 111.022 496.323,111.935 496.743,112.038 496.743 C 112.142 496.743,113.139 497.164,114.255 497.679 C 116.685 498.802,119.727 500.077,121.196 500.590 C 121.783 500.795,123.244 501.359,124.442 501.843 C 125.640 502.327,126.712 502.723,126.825 502.723 C 126.938 502.723,128.024 503.094,129.239 503.548 C 131.545 504.410,137.434 506.309,139.455 506.842 C 140.101 507.012,141.687 507.450,142.979 507.815 C 146.508 508.813,150.871 509.909,152.910 510.310 C 153.908 510.506,155.734 510.894,156.967 511.172 C 164.508 512.869,167.525 512.995,162.413 511.398 C 158.945 510.315,155.008 508.868,152.108 507.610 C 150.786 507.036,149.641 506.567,149.562 506.567 C 149.335 506.567,140.569 502.172,138.922 501.232 C 130.768 496.581,124.780 492.295,117.628 485.990 C 115.455 484.074,110.178 478.790,108.213 476.562 C 105.246 473.197,104.836 472.711,103.268 470.689 C 102.494 469.690,101.589 468.537,101.257 468.126 C 100.925 467.715,100.500 467.090,100.312 466.738 C 100.125 466.385,99.717 465.809,99.405 465.456 C 99.094 465.104,98.690 464.527,98.509 464.175 C 98.327 463.823,98.115 463.486,98.037 463.428 C 97.843 463.281,96.530 461.299,96.530 461.152 C 96.530 461.087,96.227 460.587,95.857 460.042 C 95.154 459.005,93.518 456.292,93.264 455.739 C 93.183 455.563,92.633 454.554,92.042 453.497 C 91.451 452.440,90.820 451.239,90.639 450.828 C 90.458 450.416,89.939 449.311,89.485 448.372 C 86.913 443.047,83.327 433.239,82.537 429.365 C 82.393 428.660,81.935 426.690,81.520 424.987 C 79.021 414.747,78.009 398.014,79.311 388.468 C 81.585 371.797,85.184 360.241,92.317 346.714 C 92.813 345.772,93.376 344.763,93.567 344.471 C 93.876 343.999,94.352 343.204,96.316 339.872 C 97.288 338.223,99.658 334.762,100.019 334.464 C 100.214 334.303,100.374 334.089,100.374 333.989 C 100.374 333.889,101.241 332.676,102.300 331.292 C 104.385 328.570,104.560 328.350,105.658 327.069 C 106.061 326.599,106.791 325.743,107.280 325.166 C 108.259 324.010,108.937 323.299,112.503 319.688 C 114.718 317.445,115.457 316.736,118.167 314.255 C 120.376 312.233,126.044 307.738,127.025 307.230 C 127.360 307.057,127.757 306.767,127.907 306.586 C 128.215 306.215,131.424 304.014,132.606 303.364 C 133.033 303.129,133.802 302.624,134.315 302.242 C 134.828 301.861,135.328 301.548,135.426 301.548 C 135.523 301.548,136.157 301.190,136.835 300.752 C 137.513 300.313,138.686 299.634,139.442 299.243 C 142.167 297.832,141.830 298.643,142.849 291.039 C 143.341 287.364,144.176 281.137,144.704 277.202 C 145.232 273.267,145.714 269.471,145.774 268.767 C 145.871 267.650,147.418 256.153,147.697 254.486 C 147.793 253.909,147.766 253.883,147.204 254.025 C 146.877 254.107,146.129 254.255,145.542 254.353 C 144.955 254.451,143.369 254.841,142.018 255.219 C 140.667 255.598,139.034 256.025,138.388 256.168 C 135.950 256.709,126.293 259.764,122.371 261.234 C 121.137 261.696,119.814 262.153,119.429 262.249 C 118.787 262.410,117.608 262.870,112.867 264.812 C 111.927 265.197,110.582 265.743,109.877 266.025 C 107.398 267.019,100.415 270.239,96.850 272.033 C 92.924 274.008,88.769 276.214,86.919 277.305 C 84.811 278.548,82.555 279.850,81.901 280.200 C 81.327 280.507,78.450 282.291,77.116 283.166 C 76.834 283.351,76.295 283.695,75.918 283.930 C 75.542 284.164,74.246 285.029,73.038 285.852 C 71.830 286.674,70.541 287.539,70.172 287.774 C 69.803 288.009,68.510 288.922,67.299 289.802 C 66.087 290.683,64.649 291.717,64.102 292.100 C 63.555 292.483,62.665 293.156,62.124 293.595 C 61.348 294.226,58.799 296.228,57.145 297.506 C 57.018 297.604,56.372 298.145,55.709 298.709 C 55.046 299.272,53.914 300.214,53.194 300.801 C 52.474 301.388,51.565 302.157,51.174 302.509 C 50.784 302.862,49.660 303.871,48.676 304.752 C 47.692 305.633,45.892 307.299,44.677 308.455 C 43.461 309.611,42.430 310.520,42.384 310.475 C 41.687 309.778,46.112 292.180,48.844 284.784 C 49.017 284.314,49.190 283.785,49.228 283.609 C 49.351 283.040,52.058 276.489,52.625 275.387 C 52.927 274.800,53.175 274.254,53.176 274.173 C 53.177 273.923,55.983 268.177,56.516 267.333 C 56.794 266.893,57.028 266.411,57.038 266.262 C 57.047 266.112,57.333 265.558,57.675 265.029 C 58.016 264.501,58.462 263.732,58.666 263.321 C 59.089 262.471,61.388 258.575,61.943 257.768 C 62.754 256.590,64.820 253.377,64.896 253.177 C 64.979 252.957,65.834 251.774,67.498 249.574 C 68.020 248.884,68.687 247.960,68.980 247.520 C 69.274 247.081,69.783 246.396,70.111 245.998 C 70.440 245.600,71.527 244.266,72.527 243.033 C 77.299 237.146,80.122 234.112,86.636 227.870 C 87.952 226.608,92.576 222.546,94.601 220.872 C 94.781 220.723,95.303 220.291,95.762 219.911 C 96.221 219.531,97.002 218.932,97.497 218.580 C 97.993 218.227,99.266 217.290,100.325 216.497 C 103.396 214.197,105.348 212.848,109.984 209.821 C 111.688 208.709,114.654 206.941,114.817 206.941 C 114.883 206.941,115.192 206.759,115.504 206.538 C 117.510 205.112,126.051 200.786,132.408 197.975 C 138.446 195.305,147.296 192.149,153.317 190.519 C 154.657 190.156,155.795 189.818,155.845 189.768 C 155.965 189.648,157.312 180.358,157.489 178.430 C 157.683 176.326,160.981 151.234,161.174 150.400 C 161.289 149.902,160.963 149.819,159.851 150.063 M238.839 150.294 C 238.897 150.499,239.291 153.310,239.714 156.540 C 240.138 159.770,240.908 165.633,241.427 169.568 C 241.945 173.502,242.427 177.347,242.498 178.110 C 242.663 179.874,244.061 189.674,244.162 189.776 C 244.204 189.817,245.289 190.139,246.572 190.491 C 249.349 191.252,255.179 193.114,257.128 193.863 C 257.891 194.157,259.381 194.707,260.438 195.086 C 267.142 197.492,279.570 203.376,283.966 206.225 C 284.573 206.619,285.167 206.941,285.287 206.941 C 285.406 206.941,286.136 207.373,286.908 207.902 C 287.680 208.430,288.382 208.863,288.467 208.863 C 288.552 208.863,289.248 209.281,290.013 209.791 C 290.778 210.302,292.268 211.287,293.324 211.981 C 294.380 212.674,295.638 213.529,296.120 213.881 C 296.602 214.234,298.323 215.483,299.945 216.658 C 301.566 217.832,303.191 219.069,303.555 219.406 C 303.920 219.744,304.554 220.270,304.965 220.575 C 311.031 225.086,320.965 234.956,327.139 242.605 C 328.325 244.074,329.706 245.784,330.210 246.405 C 330.714 247.027,331.165 247.647,331.212 247.782 C 331.259 247.918,331.691 248.530,332.173 249.143 C 333.987 251.452,339.135 259.115,339.135 259.507 C 339.135 259.586,339.567 260.308,340.096 261.112 C 340.624 261.916,341.056 262.655,341.057 262.754 C 341.057 262.853,341.241 263.192,341.465 263.508 C 341.983 264.236,347.035 274.206,347.042 274.515 C 347.045 274.642,347.430 275.514,347.896 276.453 C 348.363 277.391,348.745 278.267,348.745 278.400 C 348.745 278.533,349.178 279.617,349.706 280.809 C 350.235 282.001,350.756 283.335,350.865 283.773 C 350.974 284.212,351.455 285.610,351.933 286.880 C 352.412 288.151,352.803 289.300,352.803 289.434 C 352.803 289.567,353.149 290.738,353.573 292.035 C 353.996 293.332,354.467 294.970,354.620 295.675 C 354.773 296.380,355.279 298.494,355.745 300.374 C 356.593 303.797,357.808 310.283,357.633 310.457 C 357.582 310.509,356.594 309.645,355.438 308.537 C 354.283 307.430,352.808 306.066,352.162 305.506 C 351.516 304.946,350.785 304.283,350.537 304.032 C 350.289 303.782,349.578 303.145,348.957 302.616 C 348.335 302.088,347.327 301.199,346.717 300.641 C 346.107 300.083,345.521 299.626,345.414 299.626 C 345.308 299.626,344.849 299.242,344.393 298.772 C 343.937 298.302,343.495 297.918,343.410 297.918 C 343.325 297.918,343.005 297.686,342.700 297.404 C 342.144 296.888,339.504 294.821,338.229 293.904 C 337.854 293.634,337.170 293.105,336.709 292.729 C 336.247 292.353,335.653 291.901,335.389 291.725 C 335.125 291.548,333.926 290.683,332.725 289.802 C 331.524 288.922,330.395 288.105,330.216 287.987 C 330.037 287.870,328.535 286.889,326.878 285.807 C 325.221 284.725,323.626 283.668,323.334 283.458 C 322.567 282.906,318.906 280.648,317.785 280.035 C 317.260 279.748,316.587 279.342,316.290 279.133 C 315.993 278.923,315.222 278.489,314.576 278.166 C 313.930 277.844,313.257 277.460,313.081 277.313 C 312.904 277.165,311.991 276.636,311.052 276.136 C 310.112 275.637,308.623 274.842,307.742 274.370 C 304.159 272.450,295.914 268.436,294.915 268.126 C 294.629 268.036,293.818 267.674,293.114 267.321 C 292.409 266.968,291.352 266.509,290.764 266.302 C 290.177 266.095,288.853 265.531,287.823 265.050 C 286.793 264.569,285.831 264.175,285.685 264.175 C 285.539 264.175,284.412 263.745,283.180 263.218 C 281.948 262.692,280.806 262.260,280.642 262.257 C 280.479 262.255,279.470 261.902,278.400 261.474 C 277.330 261.045,275.878 260.526,275.174 260.320 C 274.469 260.115,272.883 259.609,271.650 259.196 C 267.910 257.943,263.732 256.676,262.040 256.280 C 261.159 256.074,259.188 255.570,257.662 255.159 C 254.199 254.229,252.571 253.918,252.418 254.160 C 252.354 254.262,252.702 257.176,253.194 260.634 C 253.685 264.093,254.147 267.650,254.221 268.539 C 254.294 269.429,254.786 273.193,255.314 276.903 C 255.842 280.614,256.272 283.953,256.271 284.324 C 256.269 284.694,256.667 287.832,257.154 291.297 C 258.154 298.401,257.947 297.885,260.273 299.091 C 261.802 299.884,265.258 301.925,266.568 302.809 C 267.106 303.173,267.604 303.470,267.674 303.470 C 267.744 303.470,268.370 303.903,269.065 304.431 C 269.760 304.960,270.409 305.394,270.508 305.397 C 270.608 305.399,271.285 305.855,272.014 306.411 C 272.743 306.967,274.177 308.046,275.201 308.809 C 277.191 310.293,280.253 312.851,280.370 313.127 C 280.409 313.219,280.560 313.294,280.705 313.294 C 280.851 313.294,281.365 313.703,281.848 314.202 C 282.331 314.701,283.237 315.573,283.862 316.139 C 286.480 318.512,293.433 325.637,293.433 325.947 C 293.433 326.037,293.938 326.677,294.554 327.367 C 295.917 328.893,298.893 332.656,299.626 333.779 C 299.920 334.229,300.879 335.642,301.757 336.920 C 302.635 338.197,303.535 339.578,303.756 339.989 C 303.977 340.400,304.282 340.881,304.433 341.057 C 305.837 342.691,311.934 354.922,313.482 359.210 C 313.715 359.856,314.241 361.297,314.651 362.413 C 315.879 365.755,317.188 369.879,317.460 371.261 C 317.600 371.974,317.962 373.470,318.263 374.586 C 318.872 376.839,318.998 377.490,319.900 383.022 C 321.297 391.597,321.660 405.268,320.682 412.493 C 319.298 422.720,317.232 431.573,314.625 438.441 C 314.335 439.204,313.863 440.502,313.576 441.324 C 312.898 443.268,310.425 448.811,309.099 451.361 C 307.199 455.014,305.633 457.805,304.426 459.690 C 304.050 460.278,303.139 461.719,302.401 462.894 C 301.663 464.068,300.842 465.270,300.576 465.563 C 300.310 465.857,299.916 466.397,299.699 466.763 C 299.210 467.591,296.978 470.561,296.441 471.098 C 296.223 471.316,295.952 471.659,295.840 471.860 C 295.631 472.232,295.422 472.477,291.821 476.562 C 289.897 478.744,284.714 483.926,282.378 486.004 C 280.445 487.723,278.744 489.167,277.652 490.016 C 277.047 490.486,276.435 490.973,276.290 491.098 C 275.702 491.610,271.769 494.526,271.223 494.855 C 270.900 495.050,270.055 495.627,269.345 496.137 C 267.904 497.172,266.479 498.070,263.641 499.730 C 262.584 500.348,261.191 501.164,260.545 501.543 C 257.400 503.385,247.244 508.175,245.489 508.642 C 245.254 508.705,243.984 509.177,242.666 509.690 C 241.349 510.204,240.157 510.625,240.018 510.625 C 239.269 510.625,234.637 512.444,235.238 512.502 C 236.286 512.603,247.020 510.471,251.548 509.263 C 253.031 508.867,254.581 508.482,254.992 508.409 C 256.663 508.108,267.002 504.947,270.262 503.739 C 271.201 503.391,272.403 502.982,272.931 502.831 C 273.460 502.679,274.661 502.243,275.601 501.863 C 276.540 501.483,278.030 500.904,278.911 500.578 C 280.453 500.006,281.202 499.691,286.599 497.342 C 289.096 496.255,292.338 494.762,293.113 494.341 C 293.348 494.214,294.741 493.503,296.209 492.761 C 297.678 492.019,299.119 491.272,299.413 491.102 C 299.706 490.931,300.235 490.656,300.587 490.490 C 302.093 489.782,306.769 487.090,310.917 484.542 C 312.135 483.794,313.450 482.990,313.838 482.755 C 314.227 482.520,315.529 481.655,316.732 480.833 C 317.935 480.011,319.299 479.123,319.765 478.861 C 320.230 478.598,320.718 478.247,320.850 478.080 C 320.981 477.913,321.618 477.430,322.264 477.007 C 323.882 475.947,325.397 474.852,326.527 473.926 C 327.051 473.496,327.639 473.049,327.835 472.931 C 328.173 472.728,330.118 471.233,330.810 470.644 C 330.989 470.493,332.190 469.503,333.480 468.446 C 340.549 462.652,348.234 455.265,354.474 448.265 C 355.678 446.914,356.792 445.665,356.949 445.489 C 357.498 444.872,360.607 441.080,361.559 439.864 C 362.088 439.190,362.977 438.098,363.534 437.438 C 364.092 436.779,364.549 436.110,364.549 435.952 C 364.549 435.794,364.629 435.665,364.727 435.665 C 364.825 435.665,365.276 435.112,365.730 434.437 C 366.183 433.761,366.896 432.782,367.314 432.261 C 367.731 431.740,368.265 431.002,368.500 430.622 C 368.735 430.241,369.696 428.794,370.635 427.405 C 371.575 426.016,372.409 424.721,372.489 424.527 C 372.570 424.333,372.963 423.708,373.364 423.139 C 374.087 422.112,375.146 420.376,375.983 418.843 C 376.697 417.538,377.654 415.918,377.779 415.804 C 378.006 415.597,383.718 404.319,384.499 402.536 C 384.725 402.022,385.128 401.121,385.396 400.534 C 386.510 398.092,388.013 394.476,388.368 393.384 C 388.577 392.740,388.986 391.683,389.276 391.035 C 389.567 390.386,389.927 389.423,390.078 388.895 C 390.228 388.366,390.735 386.829,391.203 385.478 C 392.314 382.275,394.026 376.704,394.025 376.295 C 394.025 376.119,394.367 374.773,394.785 373.305 C 395.203 371.837,395.720 369.722,395.933 368.607 C 396.147 367.491,396.663 364.896,397.080 362.840 C 397.796 359.313,398.715 353.009,399.492 346.289 C 399.897 342.786,400.101 322.637,399.770 318.847 C 399.474 315.463,398.953 310.881,398.593 308.489 C 398.416 307.314,398.179 305.506,398.068 304.471 C 397.956 303.435,397.583 301.225,397.237 299.559 C 396.892 297.893,396.449 295.713,396.252 294.714 C 396.056 293.716,395.555 291.602,395.139 290.016 C 394.723 288.430,394.218 286.412,394.017 285.531 C 393.396 282.817,391.129 275.798,389.394 271.223 C 388.971 270.107,388.444 268.665,388.222 268.019 C 388.000 267.373,387.685 266.556,387.521 266.204 C 386.545 264.105,386.119 263.112,386.119 262.938 C 386.119 262.830,385.686 261.859,385.158 260.781 C 384.629 259.703,384.196 258.739,384.196 258.639 C 384.196 258.370,379.467 249.062,378.792 248.002 C 378.476 247.505,378.217 247.020,378.217 246.924 C 378.217 246.829,377.784 246.049,377.256 245.192 C 376.727 244.334,376.295 243.582,376.295 243.521 C 376.295 243.382,374.766 240.831,374.595 240.683 C 374.527 240.625,374.348 240.298,374.198 239.958 C 374.049 239.618,373.729 239.089,373.489 238.783 C 373.249 238.478,372.268 237.013,371.310 235.528 C 370.352 234.043,368.943 231.940,368.179 230.854 C 367.416 229.768,366.652 228.677,366.483 228.428 C 366.313 228.180,365.833 227.548,365.415 227.024 C 364.997 226.500,364.560 225.909,364.442 225.710 C 364.034 225.021,359.158 218.900,359.017 218.900 C 358.939 218.900,358.719 218.636,358.528 218.313 C 358.337 217.990,357.812 217.335,357.360 216.857 C 356.909 216.379,356.060 215.424,355.473 214.736 C 353.293 212.181,352.373 211.208,347.571 206.383 C 343.401 202.193,340.758 199.732,334.713 194.411 C 334.218 193.976,333.655 193.531,333.461 193.422 C 333.266 193.314,332.943 193.067,332.742 192.875 C 331.830 192.001,328.842 189.641,326.156 187.670 C 325.718 187.349,325.261 187.005,325.139 186.904 C 324.592 186.452,320.982 183.881,320.205 183.391 C 319.730 183.091,319.207 182.717,319.041 182.559 C 318.875 182.401,317.923 181.744,316.925 181.098 C 315.926 180.453,315.077 179.853,315.038 179.765 C 314.999 179.677,314.845 179.605,314.697 179.605 C 314.548 179.605,314.048 179.331,313.587 178.997 C 313.125 178.663,311.741 177.789,310.512 177.055 C 309.282 176.321,307.495 175.249,306.541 174.673 C 305.586 174.097,304.736 173.625,304.652 173.625 C 304.567 173.625,304.242 173.445,303.930 173.224 C 302.746 172.386,296.135 168.973,291.191 166.648 C 289.311 165.764,287.183 164.762,286.462 164.421 C 285.740 164.080,285.075 163.801,284.984 163.801 C 284.892 163.801,283.753 163.334,282.451 162.762 C 281.150 162.190,278.932 161.287,277.523 160.756 C 276.113 160.225,273.788 159.347,272.355 158.806 C 270.923 158.265,269.615 157.822,269.449 157.822 C 269.283 157.822,268.102 157.434,266.825 156.960 C 265.548 156.487,263.973 155.972,263.325 155.817 C 262.677 155.661,260.849 155.141,259.263 154.661 C 255.485 153.516,250.934 152.333,248.386 151.834 C 247.262 151.613,244.853 151.094,243.033 150.681 C 239.181 149.806,238.687 149.760,238.839 150.294 " stroke="none" fill="#0c3c64" fill-rule="evenodd"></path><path id="path2" d="" stroke="none" fill="#e85848" fill-rule="evenodd"></path><path id="path3" d="" stroke="none" fill="#445848" fill-rule="evenodd"></path><path id="path4" d="M113.401 482.114 C 113.799 482.525,114.173 482.862,114.232 482.862 C 114.291 482.862,114.013 482.525,113.615 482.114 C 113.216 481.703,112.842 481.367,112.783 481.367 C 112.725 481.367,113.003 481.703,113.401 482.114 " stroke="none" fill="#0c5c48" fill-rule="evenodd"></path></g></svg>